<?xml version="1.0" encoding="utf-8"?>
<!-- Generator: Adobe Illustrator 16.0.0, SVG Export Plug-In . SVG Version: 6.00 Build 0)  -->
<!DOCTYPE svg PUBLIC "-//W3C//DTD SVG 1.1//EN" "http://www.w3.org/Graphics/SVG/1.1/DTD/svg11.dtd">
<svg version="1.1" xmlns="http://www.w3.org/2000/svg" xmlns:xlink="http://www.w3.org/1999/xlink" x="0px" y="0px"
	 width="368.418px" height="48.875px" viewBox="0 0 368.418 48.875" enable-background="new 0 0 368.418 48.875"
	 xml:space="preserve">
<g id="Layer_1">
</g>
<g id="footer">
	<g>
		<path fill="#FFFFFF" d="M1.953,20.038h0.086c0.774-1.806,2.193-3.01,4.3-3.01c0.774,0,1.419,0.172,2.107,0.473l-1.032,1.72
			c-0.473-0.258-0.86-0.387-1.376-0.387c-4.343,0-4.085,5.418-4.085,8.342v10.148H0.018V17.458h1.935V20.038z"/>
		<path fill="#FFFFFF" d="M12.272,27.563c-0.129,5.031,3.354,8.385,7.955,8.385c3.096,0,5.59-1.849,7.009-4.515l1.634,0.946
			c-1.806,3.44-4.988,5.375-8.901,5.375c-5.891,0-9.632-4.773-9.632-10.406c0-5.547,3.827-10.32,9.632-10.32
			c6.02,0,9.589,4.816,9.546,10.535H12.272z M27.58,25.757c-0.473-3.655-3.483-6.923-7.568-6.923c-4.042,0-7.396,3.182-7.74,6.923
			H27.58z"/>
		<path fill="#FFFFFF" d="M42.845,21.07c-0.645-1.376-1.935-2.236-3.483-2.236c-1.677,0-3.397,1.376-3.397,3.096
			c0,4.773,9.675,2.451,9.675,9.632c0,3.655-2.838,6.192-6.407,6.192c-3.311,0-6.02-2.021-6.837-5.246l1.892-0.602
			c0.731,2.365,2.322,4.042,4.945,4.042c2.494,0,4.472-1.978,4.472-4.472c0-2.451-1.892-3.225-3.87-3.913
			c-2.709-0.989-5.805-2.15-5.805-5.504c0-3.01,2.537-5.031,5.418-5.031c2.021,0,4.214,1.333,5.074,3.182L42.845,21.07z"/>
		<path fill="#FFFFFF" d="M52.864,21.027h0.086c1.462-2.537,4.644-3.999,7.568-3.999c6.062,0,9.804,4.73,9.804,10.535
			c0,5.805-3.741,10.191-9.718,10.191c-3.053,0-6.02-1.333-7.654-3.87h-0.086v15.05h-1.935V17.458h1.935V21.027z M52.735,27.821
			c0,4.644,3.139,8.127,7.912,8.127c4.644,0,7.74-3.913,7.74-8.342c0-4.558-2.968-8.772-7.826-8.772
			C55.487,18.834,52.735,23.048,52.735,27.821z"/>
		<path fill="#FFFFFF" d="M94.144,27.391c0,5.891-4.601,10.363-10.448,10.363c-5.72,0-10.32-4.687-10.32-10.32
			c0-5.719,4.558-10.406,10.32-10.406C89.543,17.028,94.144,21.5,94.144,27.391z M75.31,27.434c0,4.515,3.569,8.514,8.256,8.514
			c4.859,0,8.644-3.698,8.644-8.514c0-4.902-3.741-8.6-8.644-8.6C78.836,18.834,75.31,22.833,75.31,27.434z"/>
		<path fill="#FFFFFF" d="M101.067,20.554h0.086c1.161-2.193,3.311-3.526,5.891-3.526c5.117,0,6.536,3.182,6.536,8.299v11.997
			h-1.935V25.327c0-3.569-0.431-6.493-4.773-6.493c-4.988,0-5.805,4.644-5.805,8.686v9.804h-1.936V17.458h1.936V20.554z"/>
		<path fill="#FFFFFF" d="M128.843,21.07c-0.645-1.376-1.935-2.236-3.482-2.236c-1.677,0-3.397,1.376-3.397,3.096
			c0,4.773,9.676,2.451,9.676,9.632c0,3.655-2.839,6.192-6.407,6.192c-3.312,0-6.021-2.021-6.837-5.246l1.892-0.602
			c0.731,2.365,2.322,4.042,4.945,4.042c2.494,0,4.472-1.978,4.472-4.472c0-2.451-1.892-3.225-3.87-3.913
			c-2.709-0.989-5.805-2.15-5.805-5.504c0-3.01,2.537-5.031,5.418-5.031c2.021,0,4.214,1.333,5.074,3.182L128.843,21.07z"/>
		<path fill="#FFFFFF" d="M140.412,10.836c0,0.989-0.774,1.763-1.763,1.763c-0.989,0-1.764-0.774-1.764-1.763
			c0-0.946,0.774-1.763,1.764-1.763C139.637,9.073,140.412,9.89,140.412,10.836z M139.594,37.324h-1.935V17.458h1.935V37.324z"/>
		<path fill="#FFFFFF" d="M153.354,33.841l7.052-16.383h1.978l-9.072,20.941l-9.116-20.941h1.979L153.354,33.841z"/>
		<path fill="#FFFFFF" d="M166.21,27.563c-0.129,5.031,3.354,8.385,7.955,8.385c3.096,0,5.59-1.849,7.009-4.515l1.634,0.946
			c-1.806,3.44-4.987,5.375-8.9,5.375c-5.891,0-9.632-4.773-9.632-10.406c0-5.547,3.827-10.32,9.632-10.32
			c6.02,0,9.589,4.816,9.546,10.535H166.21z M181.519,25.757c-0.474-3.655-3.483-6.923-7.568-6.923c-4.042,0-7.396,3.182-7.74,6.923
			H181.519z"/>
		<path fill="#FFFFFF" d="M213.854,11.094c-2.321-2.064-5.504-3.182-8.557-3.182c-7.267,0-12.813,6.063-12.813,13.244
			c0,7.095,5.504,13.158,12.728,13.158c3.182,0,6.235-1.204,8.643-3.354v4.773c-2.493,1.462-5.676,2.279-8.514,2.279
			c-9.244,0-16.898-7.353-16.898-16.727c0-9.589,7.697-17.071,17.242-17.071c2.839,0,5.72,0.688,8.17,2.193V11.094z"/>
		<path fill="#FFFFFF" d="M236.257,37.324h-3.87v-3.139h-0.086c-1.548,2.279-3.956,3.827-6.837,3.827
			c-6.149,0-9.632-5.117-9.632-10.879c0-5.504,3.654-10.535,9.503-10.535c2.967,0,5.375,1.548,6.966,3.956h0.086V17.2h3.87V37.324z
			 M232.602,27.262c0-3.913-2.365-7.224-6.536-7.224c-3.999,0-6.363,3.483-6.363,7.224c0,3.784,2.278,7.31,6.363,7.31
			C230.28,34.572,232.602,31.218,232.602,27.262z"/>
		<path fill="#FFFFFF" d="M244.255,20.468h0.129c0.946-2.365,2.924-3.87,5.504-3.87c1.118,0,2.236,0.387,3.182,0.989l-1.763,3.526
			c-0.688-0.602-1.462-0.817-2.365-0.817c-4.171,0-4.687,3.87-4.687,7.138v9.89h-3.87V17.2h3.87V20.468z"/>
		<path fill="#FFFFFF" d="M273.538,27.305c0,6.063-4.729,10.707-10.75,10.707c-6.02,0-10.749-4.644-10.749-10.707
			c0-6.062,4.729-10.707,10.749-10.707C268.808,16.598,273.538,21.242,273.538,27.305z M255.908,27.305
			c0,3.784,3.054,7.009,6.88,7.009c3.827,0,6.88-3.225,6.88-7.009c0-3.827-3.053-7.009-6.88-7.009
			C258.961,20.296,255.908,23.478,255.908,27.305z"/>
		<path fill="#FFFFFF" d="M279.386,17.2v11.137c0,3.225,0.816,6.063,4.644,6.063s4.644-2.838,4.644-6.063V17.2h3.87v11.567
			c0,5.504-2.58,9.245-8.514,9.245s-8.514-3.741-8.514-9.245V17.2H279.386z"/>
		<path fill="#FFFFFF" d="M304.412,21.801c-0.474-0.989-1.462-1.763-2.58-1.763c-1.075,0-2.107,0.86-2.107,1.978
			c0,1.763,2.322,2.537,4.688,3.612s4.644,2.537,4.644,5.719c0,3.827-3.182,6.665-6.923,6.665c-2.924,0-5.891-1.677-6.966-4.515
			l3.311-1.505c0.817,1.505,1.807,2.58,3.655,2.58c1.634,0,3.053-1.118,3.053-2.838c0-1.075-0.516-1.591-1.419-2.193l-3.783-2.021
			c-2.236-1.204-3.87-2.322-3.87-5.074c0-3.268,2.666-5.848,5.934-5.848c2.451,0,4.429,1.333,5.504,3.526L304.412,21.801z"/>
		<path fill="#FFFFFF" d="M314.646,27.907c0.043,3.44,2.364,6.665,6.062,6.665c2.967,0,4.558-1.505,6.02-3.913l3.269,1.849
			c-1.893,3.483-5.418,5.504-9.331,5.504c-6.148,0-9.89-4.644-9.89-10.578c0-6.192,3.311-10.836,9.804-10.836
			c6.407,0,9.417,4.73,9.417,10.707v0.602H314.646z M326.126,24.983c-0.473-3.01-2.451-5.031-5.547-5.031
			c-3.01,0-5.246,2.15-5.719,5.031H326.126z"/>
		<path fill="#FFFFFF" d="M337.048,37.324h-3.87V0h3.87V37.324z"/>
		<path fill="#FFFFFF" d="M345.044,35.518c0,1.376-1.117,2.494-2.493,2.494s-2.494-1.118-2.494-2.494
			c0-1.333,1.118-2.494,2.494-2.494S345.044,34.185,345.044,35.518z"/>
		<path fill="#FFFFFF" d="M352.57,7.998c0,1.462-1.204,2.623-2.666,2.623s-2.666-1.161-2.666-2.623c0-1.505,1.204-2.709,2.666-2.709
			S352.57,6.493,352.57,7.998z M351.838,48.848h-3.869V17.2h3.869V48.848z"/>
		<path fill="#FFFFFF" d="M363.835,21.801c-0.474-0.989-1.462-1.763-2.58-1.763c-1.075,0-2.107,0.86-2.107,1.978
			c0,1.763,2.322,2.537,4.688,3.612s4.644,2.537,4.644,5.719c0,3.827-3.182,6.665-6.923,6.665c-2.924,0-5.891-1.677-6.966-4.515
			l3.311-1.505c0.817,1.505,1.807,2.58,3.655,2.58c1.634,0,3.053-1.118,3.053-2.838c0-1.075-0.516-1.591-1.419-2.193l-3.783-2.021
			c-2.236-1.204-3.87-2.322-3.87-5.074c0-3.268,2.666-5.848,5.934-5.848c2.451,0,4.429,1.333,5.504,3.526L363.835,21.801z"/>
	</g>
	<rect x="-3.583" y="-84.332" fill="none" width="466.502" height="88.999"/>
	<text transform="matrix(1 0 0 1 39.438 -48.8569)"><tspan x="0" y="0" fill="#FFFFFF" font-family="'FuturaStd-Light'" font-size="43">responsiv</tspan><tspan x="166.193" y="0" fill="#FFFFFF" font-family="'FuturaStd-Light'" font-size="43" letter-spacing="2">e</tspan><tspan x="190.445" y="0" fill="#FFFFFF" font-family="'FuturaStd-Book'" font-size="43">C</tspan><tspan x="220.416" y="0" fill="#FFFFFF" font-family="'FuturaStd-Book'" font-size="43" letter-spacing="-1">a</tspan><tspan x="244.065" y="0" fill="#FFFFFF" font-family="'FuturaStd-Book'" font-size="43" letter-spacing="-1">rou</tspan><tspan x="300.523" y="0" fill="#FFFFFF" font-family="'FuturaStd-Book'" font-size="43">s</tspan><tspan x="317.164" y="0" fill="#FFFFFF" font-family="'FuturaStd-Book'" font-size="43">e</tspan><tspan x="339.18" y="0" fill="#FFFFFF" font-family="'FuturaStd-Book'" font-size="43" letter-spacing="-3">l</tspan><tspan x="345.371" y="0" fill="#FFFFFF" font-family="'FuturaStd-Book'" font-size="43" letter-spacing="-4">.</tspan><tspan x="354.315" y="0" fill="#FFFFFF" font-family="'FuturaStd-Book'" font-size="43" letter-spacing="-2">j</tspan><tspan x="363.302" y="0" fill="#FFFFFF" font-family="'FuturaStd-Book'" font-size="43">s</tspan></text>
</g>
</svg>
