<?xml version="1.0" encoding="utf-8"?>
<!-- Generator: Adobe Illustrator 16.0.0, SVG Export Plug-In . SVG Version: 6.00 Build 0)  -->
<!DOCTYPE svg PUBLIC "-//W3C//DTD SVG 1.1//EN" "http://www.w3.org/Graphics/SVG/1.1/DTD/svg11.dtd">
<svg version="1.1" xmlns="http://www.w3.org/2000/svg" xmlns:xlink="http://www.w3.org/1999/xlink" x="0px" y="0px" width="407px"
	 height="71.167px" viewBox="0 0 407 71.167" enable-background="new 0 0 407 71.167" xml:space="preserve">
<g id="Layer_1">
</g>
<g id="footer">
	<g>
		<path fill="#555555" d="M18.683,29.19h0.086c0.774-1.806,2.193-3.01,4.3-3.01c0.774,0,1.419,0.172,2.107,0.473l-1.032,1.72
			c-0.473-0.258-0.86-0.387-1.376-0.387c-4.343,0-4.085,5.418-4.085,8.342v10.148h-1.935V26.61h1.935V29.19z"/>
		<path fill="#555555" d="M29.002,36.715c-0.129,5.031,3.354,8.385,7.955,8.385c3.096,0,5.59-1.849,7.009-4.515l1.634,0.946
			c-1.806,3.44-4.988,5.375-8.901,5.375c-5.891,0-9.632-4.773-9.632-10.406c0-5.547,3.827-10.32,9.632-10.32
			c6.02,0,9.589,4.816,9.546,10.535H29.002z M44.31,34.909c-0.473-3.655-3.483-6.923-7.568-6.923c-4.042,0-7.396,3.182-7.74,6.923
			H44.31z"/>
		<path fill="#555555" d="M59.575,30.222c-0.645-1.376-1.935-2.236-3.483-2.236c-1.677,0-3.397,1.376-3.397,3.096
			c0,4.773,9.675,2.451,9.675,9.632c0,3.655-2.838,6.192-6.407,6.192c-3.311,0-6.02-2.021-6.837-5.246l1.892-0.602
			c0.731,2.365,2.322,4.042,4.945,4.042c2.494,0,4.472-1.978,4.472-4.472c0-2.451-1.892-3.225-3.87-3.913
			c-2.709-0.989-5.805-2.15-5.805-5.504c0-3.01,2.537-5.031,5.418-5.031c2.021,0,4.214,1.333,5.074,3.182L59.575,30.222z"/>
		<path fill="#555555" d="M69.594,30.179h0.086c1.462-2.537,4.644-3.999,7.568-3.999c6.062,0,9.804,4.73,9.804,10.535
			c0,5.805-3.741,10.191-9.718,10.191c-3.053,0-6.02-1.333-7.654-3.87h-0.086v15.05h-1.935V26.61h1.935V30.179z M69.465,36.973
			c0,4.644,3.139,8.127,7.912,8.127c4.644,0,7.74-3.913,7.74-8.342c0-4.558-2.967-8.772-7.826-8.772
			C72.217,27.986,69.465,32.2,69.465,36.973z"/>
		<path fill="#555555" d="M110.874,36.543c0,5.891-4.601,10.363-10.449,10.363c-5.719,0-10.319-4.687-10.319-10.32
			c0-5.719,4.558-10.406,10.319-10.406C106.273,26.18,110.874,30.652,110.874,36.543z M92.04,36.586
			c0,4.515,3.569,8.514,8.256,8.514c4.859,0,8.644-3.698,8.644-8.514c0-4.902-3.741-8.6-8.644-8.6
			C95.566,27.986,92.04,31.985,92.04,36.586z"/>
		<path fill="#555555" d="M117.797,29.707h0.086c1.161-2.193,3.311-3.526,5.891-3.526c5.117,0,6.536,3.182,6.536,8.299v11.997
			h-1.936V34.479c0-3.569-0.43-6.493-4.772-6.493c-4.988,0-5.805,4.644-5.805,8.686v9.804h-1.936V26.61h1.936V29.707z"/>
		<path fill="#555555" d="M145.573,30.222c-0.645-1.376-1.935-2.236-3.482-2.236c-1.677,0-3.397,1.376-3.397,3.096
			c0,4.773,9.675,2.451,9.675,9.632c0,3.655-2.838,6.192-6.406,6.192c-3.312,0-6.021-2.021-6.837-5.246l1.892-0.602
			c0.731,2.365,2.322,4.042,4.945,4.042c2.494,0,4.472-1.978,4.472-4.472c0-2.451-1.892-3.225-3.87-3.913
			c-2.709-0.989-5.805-2.15-5.805-5.504c0-3.01,2.537-5.031,5.418-5.031c2.021,0,4.214,1.333,5.074,3.182L145.573,30.222z"/>
		<path fill="#555555" d="M157.142,19.989c0,0.989-0.774,1.763-1.763,1.763c-0.989,0-1.764-0.774-1.764-1.763
			c0-0.946,0.774-1.763,1.764-1.763C156.367,18.226,157.142,19.042,157.142,19.989z M156.324,46.476h-1.935V26.61h1.935V46.476z"/>
		<path fill="#555555" d="M170.084,42.993l7.052-16.383h1.978l-9.072,20.941l-9.116-20.941h1.979L170.084,42.993z"/>
		<path fill="#555555" d="M182.94,36.715c-0.129,5.031,3.354,8.385,7.955,8.385c3.096,0,5.59-1.849,7.009-4.515l1.634,0.946
			c-1.806,3.44-4.987,5.375-8.9,5.375c-5.891,0-9.632-4.773-9.632-10.406c0-5.547,3.827-10.32,9.632-10.32
			c6.02,0,9.589,4.816,9.546,10.535H182.94z M198.249,34.909c-0.474-3.655-3.483-6.923-7.568-6.923c-4.042,0-7.396,3.182-7.74,6.923
			H198.249z"/>
		<path fill="#555555" d="M231.874,21.149c-2.58-2.666-6.148-4.3-9.89-4.3c-7.224,0-13.071,6.278-13.071,13.416
			c0,7.138,5.891,13.416,13.157,13.416c3.655,0,7.224-1.72,9.804-4.3v4.472c-2.795,2.021-6.234,3.182-9.675,3.182
			c-9.158,0-16.898-7.439-16.898-16.641c0-9.288,7.611-16.899,16.898-16.899c3.612,0,6.794,1.032,9.675,3.182V21.149z"/>
		<path fill="#555555" d="M255.567,46.476h-3.44v-2.795h-0.086c-1.763,2.236-4.128,3.354-6.966,3.354
			c-5.934,0-9.675-5.031-9.675-10.621c0-5.762,3.655-10.707,9.718-10.707c2.752,0,5.246,1.29,6.923,3.44h0.086v-2.881h3.44V46.476z
			 M238.927,36.156c0,3.956,2.321,7.697,6.621,7.697c4.43,0,6.751-3.569,6.751-7.654c0-4.042-2.536-7.31-6.794-7.31
			C241.507,28.889,238.927,32.373,238.927,36.156z"/>
		<path fill="#555555" d="M264.038,28.459h0.086c1.204-1.591,2.235-2.752,4.472-2.752c1.161,0,2.107,0.387,3.096,0.946l-1.634,3.139
			c-0.688-0.473-1.161-0.903-2.063-0.903c-3.784,0-3.956,4.859-3.956,7.482v10.105h-3.44V26.267h3.44V28.459z"/>
		<path fill="#555555" d="M271.992,36.414c0-5.934,4.687-10.707,10.621-10.707c5.934,0,10.62,4.773,10.62,10.707
			c0,5.934-4.729,10.621-10.62,10.621C276.722,47.035,271.992,42.348,271.992,36.414z M275.433,36.371
			c0,4.128,2.924,7.482,7.181,7.482s7.181-3.354,7.181-7.482c0-4.085-2.924-7.482-7.181-7.482S275.433,32.286,275.433,36.371z"/>
		<path fill="#555555" d="M299.771,37.532c0,3.397,0.387,6.321,4.558,6.321s4.558-2.924,4.558-6.321V26.267h3.44v11.653
			c0,5.375-2.021,9.116-7.998,9.116s-7.998-3.741-7.998-9.116V26.267h3.44V37.532z"/>
		<path fill="#555555" d="M325.397,30.953c-0.473-1.075-1.505-2.064-2.752-2.064c-1.204,0-2.494,0.946-2.494,2.236
			c0,1.849,2.322,2.537,4.688,3.526c2.365,0.989,4.687,2.408,4.687,5.805c0,3.827-3.096,6.579-6.837,6.579
			c-3.396,0-6.062-1.935-7.138-5.117l3.053-1.29c0.86,1.892,1.85,3.225,4.128,3.225c1.85,0,3.269-1.247,3.269-3.096
			c0-4.515-9.116-2.967-9.116-9.331c0-3.397,2.752-5.719,6.02-5.719c2.322,0,4.473,1.634,5.375,3.741L325.397,30.953z"/>
		<path fill="#555555" d="M335.589,37.102c0.043,3.741,2.709,6.751,6.621,6.751c2.925,0,4.816-1.763,6.149-4.171l2.924,1.677
			c-1.935,3.612-5.203,5.676-9.331,5.676c-6.02,0-9.89-4.601-9.89-10.406c0-5.977,3.483-10.922,9.804-10.922
			c6.493,0,9.933,5.375,9.589,11.395H335.589z M347.844,34.178c-0.474-2.924-2.925-5.289-5.935-5.289
			c-2.967,0-5.719,2.365-6.148,5.289H347.844z"/>
		<path fill="#555555" d="M359.238,46.476h-3.44V11.001h3.44V46.476z"/>
		<path fill="#555555" d="M367.838,44.584c0,1.333-1.075,2.451-2.408,2.451s-2.408-1.118-2.408-2.451
			c0-1.29,1.075-2.365,2.408-2.365S367.838,43.294,367.838,44.584z"/>
		<path fill="#555555" d="M375.836,18.656c0,1.376-1.118,2.451-2.451,2.451s-2.451-1.075-2.451-2.451
			c0-1.333,1.118-2.451,2.451-2.451S375.836,17.323,375.836,18.656z M375.104,57.828h-3.439V26.267h3.439V57.828z"/>
		<path fill="#555555" d="M388.176,30.953c-0.473-1.075-1.505-2.064-2.752-2.064c-1.204,0-2.493,0.946-2.493,2.236
			c0,1.849,2.321,2.537,4.687,3.526c2.365,0.989,4.687,2.408,4.687,5.805c0,3.827-3.096,6.579-6.837,6.579
			c-3.396,0-6.062-1.935-7.138-5.117l3.053-1.29c0.86,1.892,1.85,3.225,4.128,3.225c1.85,0,3.269-1.247,3.269-3.096
			c0-4.515-9.116-2.967-9.116-9.331c0-3.397,2.752-5.719,6.021-5.719c2.321,0,4.472,1.634,5.374,3.741L388.176,30.953z"/>
	</g>
</g>
</svg>
