<?xml version="1.0" encoding="utf-8"?>
<!-- Generator: Adobe Illustrator 16.0.0, SVG Export Plug-In . SVG Version: 6.00 Build 0)  -->
<!DOCTYPE svg PUBLIC "-//W3C//DTD SVG 1.1//EN" "http://www.w3.org/Graphics/SVG/1.1/DTD/svg11.dtd">
<svg version="1.1" id="Layer_1" xmlns="http://www.w3.org/2000/svg" xmlns:xlink="http://www.w3.org/1999/xlink" x="0px" y="0px"
	 width="80px" height="80px" viewBox="0 0 80 80" enable-background="new 0 0 80 80" xml:space="preserve">
<g>
	<path opacity="0.15" fill="#222222" d="M40,0C17.909,0,0,17.909,0,40c0,22.092,17.909,40,40,40c22.092,0,40-17.908,40-40
		C80,17.909,62.092,0,40,0z M52.943,39.001l-2.041,2.041l-4.29,4.291l-0.002-0.002l-11.333,11.33l-6.332-6.336l11.331-11.327
		l-11.33-11.327l6.332-6.335l17.667,17.661L52.943,39.001L52.943,39.001z"/>
	<g opacity="0.75">
		
			<rect x="36.467" y="20.845" transform="matrix(-0.7069 0.7073 -0.7073 -0.7069 93.4688 27.9407)" fill="#FFFFFF" width="8.957" height="24.98"/>
		
			<rect x="36.465" y="32.174" transform="matrix(-0.707 -0.7072 0.7072 -0.707 38.3043 105.1968)" fill="#FFFFFF" width="8.958" height="24.979"/>
	</g>
</g>
</svg>
